<svg class="quote__decoration quote__decoration--large" viewBox="0 0 528 953" fill="none" xmlns="http://www.w3.org/2000/svg">
        <path d="M440.999 589.536C447.962 585.516 451.444 583.506 451.994 580.178C452.544 576.851 449.895 573.827 444.596 567.779L403.861 521.285C400.166 517.067 398.319 514.959 395.8 514.542C393.281 514.126 390.853 515.527 385.997 518.331L353.531 537.075C348.675 539.878 346.248 541.28 345.349 543.67C344.45 546.06 345.352 548.714 347.157 554.023L367.055 612.548C369.643 620.16 370.937 623.966 374.094 625.154C377.251 626.341 380.733 624.331 387.696 620.311L440.999 589.536Z" fill="var(--color-theme-40)"></path>
        <path d="M336.471 89.4972C351.025 93.397 362.793 92.7892 371.773 87.6737C380.664 82.5344 387.076 72.6279 391.008 57.9541C394.939 43.2804 394.34 31.4953 389.209 22.5989C383.99 13.6787 374.103 7.26862 359.549 3.36878C344.906 -0.554844 333.138 0.0529866 324.247 5.19227C315.288 10.228 308.832 20.1226 304.879 34.8761C300.926 49.6296 301.559 61.4664 306.778 70.3867C311.93 79.2034 321.828 85.5735 336.471 89.4972Z" fill="var(--color-theme-40)"></path>
        <path d="M472.704 207.384C466.638 205.193 463.605 204.097 460.828 205.548C458.05 206.998 457.164 210.304 455.392 216.916L439.699 275.483C437.959 281.979 437.088 285.228 438.566 287.786C440.043 290.345 443.291 291.216 449.787 292.956L508.355 308.649C514.967 310.421 518.273 311.307 520.918 309.626C523.563 307.945 524.13 304.771 525.263 298.423C529.392 275.298 527.094 256.267 518.37 241.33C509.773 226.592 494.551 215.277 472.704 207.384Z" fill="var(--color-theme-10)"></path>
        <path d="M305.175 197.233C297.409 195.153 293.527 194.112 289.834 195.102C286.142 196.091 283.299 198.933 277.614 204.618L264.342 217.89C258.657 223.575 255.815 226.418 254.825 230.11C253.836 233.803 254.876 237.686 256.957 245.451L261.815 263.581C263.896 271.347 264.936 275.23 267.64 277.933C270.343 280.636 274.225 281.676 281.991 283.757L300.121 288.615C307.887 290.696 311.77 291.736 315.462 290.747C319.155 289.757 321.997 286.915 327.682 281.23L340.954 267.958C346.639 262.273 349.481 259.431 350.471 255.738C351.46 252.046 350.42 248.163 348.339 240.397L343.481 222.267C341.4 214.502 340.36 210.619 337.657 207.916C334.954 205.213 331.071 204.172 323.305 202.091L305.175 197.233Z" fill="white"></path>
        <path d="M51.0502 858.849C43.2844 856.768 39.4015 855.728 35.709 856.717C32.0166 857.707 29.1741 860.549 23.4891 866.234L10.2173 879.506C4.53235 885.191 1.68987 888.033 0.700472 891.726C-0.288926 895.418 0.751492 899.301 2.83233 907.067L7.69016 925.197C9.77099 932.963 10.8114 936.845 13.5145 939.549C16.2176 942.252 20.1005 943.292 27.8663 945.373L45.9959 950.231C53.7617 952.312 57.6446 953.352 61.3371 952.363C65.0296 951.373 67.8721 948.531 73.557 942.846L86.8289 929.574C92.5138 923.889 95.3563 921.046 96.3457 917.354C97.3351 913.662 96.2947 909.779 94.2138 902.013L89.356 883.883C87.2752 876.117 86.2347 872.235 83.5317 869.531C80.8286 866.828 76.9457 865.788 69.1799 863.707L51.0502 858.849Z" fill="var(--color-theme-10)"></path>
    </svg>