<svg class="hero__decoration" viewBox="0 0 1440 823" fill="none" preserveAspectRatio="xMinYMin slice" xmlns="http://www.w3.org/2000/svg">
        <path d="M74.2771 764.539C68.5897 761.256 65.746 759.615 65.2966 756.897C64.8472 754.18 67.0111 751.711 71.3388 746.772L104.611 708.804C107.629 705.36 109.138 703.638 111.195 703.298C113.253 702.958 115.236 704.103 119.202 706.392L145.72 721.699C149.686 723.988 151.669 725.133 152.403 727.084C153.137 729.036 152.4 731.203 150.926 735.538L134.673 783.331C132.559 789.547 131.502 792.655 128.924 793.625C126.345 794.594 123.502 792.953 117.814 789.67L74.2771 764.539Z" fill="currentColor"></path>
        <path d="M951.129 64.5521C942.7 62.2941 938.486 61.165 937.585 57.9798C936.684 54.7947 939.683 51.6265 945.682 45.2902L979.491 9.57854C986.015 2.68755 989.277 -0.757953 992.63 0.140332C995.983 1.03862 997.085 5.65311 999.288 14.8821L1010.71 62.71C1012.73 71.1962 1013.75 75.4392 1011.37 77.7474C1009 80.0556 1004.79 78.9265 996.358 76.6684L951.129 64.5521Z" fill="currentColor"></path>
        <path d="M153.828 161.929C141.94 165.113 132.329 164.617 124.994 160.44C117.731 156.243 112.495 148.153 109.283 136.17C106.072 124.188 106.561 114.564 110.752 107.299C115.015 100.014 123.09 94.7799 134.978 91.5952C146.938 88.3911 156.55 88.8875 163.812 93.0843C171.13 97.1966 176.403 105.277 179.632 117.324C182.86 129.372 182.343 139.038 178.08 146.323C173.872 153.523 165.788 158.725 153.828 161.929Z" fill="currentColor"></path>
        <path d="M1264.54 260.616C1253.88 254.464 1247.43 247.318 1245.2 239.179C1243.03 231.077 1245.05 221.655 1251.26 210.911C1257.46 200.168 1264.61 193.709 1272.71 191.534C1280.88 189.397 1290.29 191.405 1300.95 197.557C1311.67 203.747 1318.12 210.893 1320.29 218.994C1322.55 227.075 1320.57 236.517 1314.33 247.318C1308.09 258.12 1300.89 264.59 1292.72 266.727C1284.66 268.843 1275.26 266.806 1264.54 260.616Z" fill="currentColor"></path>
        <path d="M1150.39 334.546C1145.62 332.309 1143.24 331.19 1142.47 328.749C1141.71 326.308 1143.1 323.887 1145.9 319.046L1170.66 276.166C1173.41 271.41 1174.78 269.032 1177.11 268.407C1179.44 267.783 1181.82 269.156 1186.58 271.902L1229.47 296.658C1234.31 299.453 1236.73 300.851 1237.29 303.349C1237.85 305.847 1236.34 308.007 1233.33 312.327C1222.36 328.064 1210.04 337.727 1196.37 341.314C1182.9 344.86 1167.57 342.604 1150.39 334.546Z" fill="currentColor"></path>
        <path d="M42.5546 170.819C47.5089 169.03 49.986 168.135 52.255 169.32C54.5239 170.504 55.2474 173.204 56.6945 178.603L69.5124 226.43C70.9341 231.734 71.645 234.387 70.4383 236.477C69.2316 238.566 66.5786 239.277 61.2726 240.698L13.4356 253.513C8.03485 254.96 5.33449 255.684 3.17398 254.311C1.01346 252.938 0.550617 250.346 -0.375073 245.163C-3.74741 226.278 -1.87059 210.737 5.25537 198.539C12.2767 186.505 24.7097 177.265 42.5546 170.819Z" fill="currentColor"></path>
        <path d="M1398.57 665.166C1404.91 663.467 1408.08 662.617 1411.1 663.425C1414.11 664.233 1416.43 666.554 1421.08 671.196L1431.92 682.034C1436.56 686.677 1438.88 688.998 1439.69 692.013C1440.5 695.029 1439.65 698.2 1437.95 704.541L1433.98 719.346C1432.28 725.688 1431.43 728.858 1429.23 731.066C1427.02 733.273 1423.85 734.123 1417.5 735.822L1402.69 739.789C1396.35 741.488 1393.18 742.338 1390.16 741.53C1387.15 740.722 1384.83 738.401 1380.18 733.758L1369.34 722.92C1364.7 718.278 1362.38 715.957 1361.57 712.942C1360.76 709.926 1361.61 706.755 1363.31 700.414L1367.28 685.609C1368.98 679.267 1369.83 676.096 1372.04 673.889C1374.24 671.682 1377.42 670.832 1383.76 669.133L1398.57 665.166Z" fill="currentColor"></path>
        <path d="M994.01 797.643C988.708 796.223 986.056 795.513 984.85 793.423C983.643 791.334 984.354 788.681 985.776 783.376L998.593 735.551C1000.02 730.245 1000.73 727.593 1002.82 726.386C1004.91 725.18 1007.56 725.89 1012.86 727.311C1027.61 731.262 1045.96 736.179 1060.71 740.129C1066.01 741.549 1068.66 742.259 1069.87 744.349C1071.07 746.439 1070.36 749.091 1068.94 754.396L1056.12 802.222C1054.7 807.527 1053.99 810.179 1051.9 811.386C1049.81 812.592 1047.16 811.882 1041.86 810.462C1027.11 806.511 1008.76 801.594 994.01 797.643Z" fill="currentColor"></path>
        <path d="M405.363 745.632C411.706 743.932 414.878 743.083 417.894 743.891C420.91 744.699 423.231 747.02 427.875 751.662L438.715 762.5C443.358 767.143 445.68 769.464 446.488 772.479C447.296 775.495 446.447 778.665 444.747 785.007L440.779 799.812C439.08 806.154 438.23 809.324 436.022 811.532C433.814 813.739 430.643 814.589 424.3 816.288L409.491 820.255C403.148 821.954 399.977 822.804 396.961 821.996C393.945 821.188 391.623 818.867 386.98 814.224L376.14 803.386C371.496 798.744 369.175 796.423 368.366 793.407C367.558 790.392 368.408 787.221 370.108 780.88L374.076 766.075C375.775 759.733 376.625 756.562 378.833 754.355C381.041 752.147 384.212 751.298 390.555 749.599L405.363 745.632Z" fill="currentColor"></path>
        <path d="M249.506 601.459C255.849 599.76 259.02 598.91 262.036 599.718C265.052 600.526 267.374 602.847 272.017 607.49L282.858 618.328C287.501 622.97 289.823 625.291 290.631 628.306C291.439 631.322 290.589 634.493 288.89 640.834L284.922 655.639C283.222 661.981 282.372 665.152 280.165 667.359C277.957 669.566 274.785 670.416 268.442 672.115L253.634 676.082C247.291 677.781 244.12 678.631 241.104 677.823C238.088 677.015 235.766 674.694 231.123 670.051L220.282 659.214C215.639 654.571 213.317 652.25 212.509 649.235C211.701 646.219 212.551 643.048 214.25 636.707L218.218 621.902C219.918 615.56 220.768 612.39 222.976 610.182C225.183 607.975 228.355 607.125 234.698 605.426L249.506 601.459Z" fill="currentColor"></path>
    </svg>